<svg xmlns="http://www.w3.org/2000/svg" viewBox="0 0 470.99 148.73"><defs><style>.cls-1{fill:#fff;}</style></defs><g id="Calque_2" data-name="Calque 2"><g id="Calque_1-2" data-name="Calque 1"><path class="cls-1" d="M322.21,148.73c-1-1.16-2.56-.76-3.83-1.1-3.24-.88-6.27-2.09-8.6-4.61-2-2.2-3-4.79-2.18-7.74a19.9,19.9,0,0,0-.07-10.39c-1.92-7.68-4.31-15.18-8.34-22.08a3.47,3.47,0,0,0-4.38-1.92c-29.34,6.7-58.87,12.46-88.51,17.63-27.6,4.81-55.26,9.23-83.23,11.24-9.54.68-19.19,1.4-28.7-.63-6.12-1.3-6.75-2.48-6-8.69,1.51-12,1.7-24.16,2.18-36.26.07-1.88-1-1.63-2.13-1.3-11.18,3.36-22.7,4.45-34.26,5.58-17.71,1.73-34.63-1.21-51.1-7.56A4.25,4.25,0,0,1,0,77.53c-.25-1.94,1.67-2,2.86-2.45C9.64,72.35,16.52,69.91,22.71,66c2.77-1.76,5.54-3.56,7.49-6.12-14.1-9.33-21.38-23-25.29-38.79A15,15,0,0,1,5,13c.89-2.91,2.29-3.68,4.91-2.19,14.41,8.2,30,7.92,45.71,6.38,19.08-1.86,37.36-7.64,55.94-12,11-2.56,22-5.29,33.4-5.25,4.2,0,8.35.44,12.19,2.45,5.33,2.78,6.91,6.24,5.51,12-1,4,.38,7.73,1.21,11.52a67.3,67.3,0,0,0,7.95,19.65c1,1.67,2,2.06,3.88,1.63,33.54-7.6,67.32-14,101.25-19.66,21.31-3.54,42.67-6.84,64.2-8.78,10.86-1,21.73-2,32.65-.72a24.77,24.77,0,0,1,3.52.65c4.46,1.18,5.8,3.31,5.2,7.94-1.57,12-1.95,24.14-2.29,36.25-.07,2.35.34,2.76,2.78,2.14,20.33-5.19,40.93-7.48,61.83-4.4,7.91,1.16,15.35,4.3,23,6.72,1.68.53,2.3,1.95,3.21,3.17v1.21l-9.13,3.6c-7.29,2.86-14.25,6.27-20.21,11.5-1.34,1.17-1.5,1.74.17,2.74a42.86,42.86,0,0,1,5.83,4.2c7.78,6.66,11.87,15.68,15.55,24.92a35.38,35.38,0,0,1,3,14c0,1.9-.28,4-2.19,5s-3.65-.3-5.13-1.49a9.85,9.85,0,0,0-3.89-2.16,115.42,115.42,0,0,0-16.81-2.91c-17-1.52-33.74.79-50.27,4.52-14.9,3.36-29.7,7.16-44.57,10.65-4.2,1-8.5,1.56-12.76,2.31ZM94.05,126.47c6.1.61,11.66-.2,17.19-.9,24.81-3.13,49.32-8,73.85-12.78,45.61-8.87,91-19.07,136.78-26.88,18.15-3.1,36.46-5.38,54.15,2.75,0-.19.16-.41.11-.57-4.81-15.32-5.13-31.13-4.95-47a38.94,38.94,0,0,1,3.5-16.31c1.58-3.38,1.64-3.34-2.24-3.32-9.75.06-19.33,1.65-28.89,3.26-35.29,5.91-70.28,13.37-105.34,20.47-31.83,6.46-63.58,13.39-95.75,18-16.18,2.32-32.38,3.55-48.12-3.88A10.64,10.64,0,0,0,94.63,61c4.62,13.08,5.13,26.68,4.92,40.33C99.42,109.88,99.39,118.57,94.05,126.47Zm365,4.8a21.65,21.65,0,0,0-.06-3.4c-2.86-13.48-8.25-25.48-19.91-33.77a18.62,18.62,0,0,1-4-3.53c-1.49-1.88-1.38-3.37.59-4.8,7.52-5.47,14.91-11.13,23.71-14.5.83-.32,2-.3,2.36-1.54a131.38,131.38,0,0,0-21.9-3.56c-17.45-1.46-34.77.22-52,2.57-8.13,1.11-8.1,1.23-7,9.66a110.93,110.93,0,0,1,1.21,19.45,7.23,7.23,0,0,1-3,5.89,25.75,25.75,0,0,1-8.93,4.11c-7.33,2-14.73,3.69-22.05,5.7-10.86,3-21.26,7-29.79,14.74a18.74,18.74,0,0,0-5.06,7c-1.5,3.84-.11,6.3,4,6.81a31.77,31.77,0,0,0,9-.32c12.76-2.06,25-6.12,37.44-9.54,16.17-4.45,32.14-9.84,49-11.13,5.74-.44,11.45-2.12,17.29-.83C439.88,122.49,450.19,124.14,459,131.27ZM8.2,78.19c11.51,2.22,22.31,4.26,33.31,4.37,14.64.14,29.16-1.56,43.64-3.5,5.51-.74,5.42-.82,5-6.52-.49-7-2-13.84-1.67-20.9.14-3.33,1.11-5.83,3.78-7.69a23.73,23.73,0,0,1,5.61-2.8,161.66,161.66,0,0,1,16.18-4.38c11.28-2.75,22.5-5.67,32.35-12.18,4.36-2.89,8.51-6.07,10.8-11,2-4.33.4-7.1-4.29-7.44a27.87,27.87,0,0,0-4.48,0c-9.12.8-17.87,3.26-26.65,5.64C103.22,16.8,84.9,23,65.83,26.08,58,27.36,50,29.09,42,27.94c-10.37-1.49-20.7-3.69-29.43-10.2-.2-.15-.54-.12-.94-.2a7,7,0,0,0-.1,1.53c2.53,13.67,7.72,25.85,19.31,34.43,1.76,1.3,3.7,2.42,4.95,4.32S37,61,35.05,62.44c-7.26,5.33-14.52,10.64-23,14C11,76.83,9.93,77.38,8.2,78.19Zm303,50.07C320.11,119,331,114.94,342,111.41c6.46-2.06,13.09-3.54,19.64-5.31,4.43-1.2,8.92-2.29,12.69-5.1,4.31-3.21,4-6.14-.94-8.36S363.33,90,358.14,90.1c-18.51.33-36.39,4.72-54.32,8.77-1.76.4-1.6,1-.76,2.13C308.76,108.87,311.45,117.69,311.22,128.26ZM159.13,20.19C151.32,28.28,141.8,32.25,132,35.65c-7,2.42-14.18,4.07-21.3,6-4.88,1.35-10,2.25-14.23,5.26-1.59,1.12-3.18,2.4-3.07,4.51.12,2.28,2,3.35,3.86,4.16,4.21,1.83,8.69,2.22,13.2,2.22,15.79,0,31.19-2.93,46.53-6.29a84.94,84.94,0,0,0,11.52-2.92,58,58,0,0,1-7.05-13.21C159.74,30.69,159.6,25.72,159.13,20.19Z"/><path class="cls-1" d="M212.53,77.7l1.69-3.85a9.77,9.77,0,0,1,6.94-5.68c4.15-1,6.81,1.13,7.05,5.4.17,3.07-1,5.57-3.37,8.05,2.75-1.05,3.06-1.34,4-3.9.43-1.24.73-2.92,2.4-2.37s.83,2.27.53,3.4c-2,7.67-9.67,10.83-16.57,6.79-1.22-.72-1.35.15-1.79.65a11.05,11.05,0,0,1-6.7,3.67c-5.07.87-7.11-.37-9.82-5.91-1.07,1.11-.27,2.3-.23,3.34.24,5.46-2.26,9.89-6.53,11.37s-6.7.21-8.28-4.73c-1.43,3.3-3.07,6.23-6.78,7.21-4.49,1.18-7.22-.62-7.79-5.24-.24-1.92.3-3.78.47-5.67.54-5.71,2.19-11.4.44-17.18-.25-.84.39-1.22,1.14-1.45a4.7,4.7,0,0,1,6.32,4.1c.08.69-.06,1.42.07,2.1.19,1-.73,2.23.26,2.8,1.48.85,2.75,2.19,4.19,2.71,1.21.44,2.34-1.37,2.7-2.7.8-3,1.41-6.12.22-9.12-.71-1.78.14-2.13,1.44-2.39,3.24-.65,6.24,1.58,5.69,5.1-.61,3.85,2,4.85,4.06,6.61.77.67,1.25.1,1.76-.36a7.48,7.48,0,0,0,1.67-2.79,11.38,11.38,0,0,1,5.17-6C208.39,68.83,212.19,70.94,212.53,77.7ZM205.64,84c1.75,1.42,2.61,1.49,4.36.34,2.17-1.4,2.84-3,2.28-5.46C210.57,83.33,209.83,83.89,205.64,84Zm15.78-9.5c-.15.72-.57,1.59.4,1.48,1.38-.16,1.68-1.52,2-2.64.26-.83-.11-2-.77-2C221.3,71.64,221.93,73.53,221.42,74.49Zm-15.83,4c1.6-.12,2-1.34,2.33-2.57.23-.83.09-1.79-.69-2-1-.34-1.08.8-1.23,1.46C205.77,76.39,205,77.35,205.59,78.52Z"/><path class="cls-1" d="M279.67,53.7c-1.34,4.17-1.39,8.51-2.23,12.7a35.19,35.19,0,0,1-3,9.68,11.38,11.38,0,0,1-4.12,4.66c-3.59,2.17-5.42,1.66-7.44-2.11-.23.2-.53.35-.67.59-1.41,2.34-3.16,4.44-6.13,4s-4.25-3.05-5.06-5.74c-1.12-3.74-.67-7.52-.24-11.31.11-.93.95-2.37-.64-2.8a2.3,2.3,0,0,0-3,1.4c-.48,1.35,0,2.23,1.53,2.5s1.08,1.33.64,2.28c-1.54,3.36-7.16,3.56-10,.36-3.07-3.44-2-9.31,2.14-11.63,2.65-1.49,5.52-1.56,8.45-1.35.93.06,1.79.4,2.68-.62,2-2.31,4.3-2.56,6.22-1a4.62,4.62,0,0,1,.38,7c-3.72,3.33-2.23,7.25-2,11,.06,1.23.61,2.83,2.23,2.69s2.27-1.67,2.44-3.06c.31-2.58.35-5.19.51-7.78a9.68,9.68,0,0,1,1.09-4,1.8,1.8,0,0,1,1.9-1.15c.93.16,1.22.88,1.36,1.74.45,2.66-.38,5.15-1,7.67-.41,1.78-1.09,4.15,1,4.71s2.55-2,3.08-3.63c1.6-4.91,1.54-10.06,2-15.13A14.81,14.81,0,0,1,274.88,47a7.38,7.38,0,0,1,8.88-2.36c2.48,1,4.15,2.87,4.09,5.71-.05,2.41-2.79,4.88-5.31,5.47C280.61,56.26,281.21,54.07,279.67,53.7Z"/><path class="cls-1" d="M312.57,69.38c-1.74,3-4,4.92-7.62,4.2-3.47-.69-3.82-3.56-4.26-6.83-1.09,2.34-1.41,4.46-2.67,6.17-2.15,2.94-4.54,3.62-7.7,1.77-1-.59-1.32-.28-1.88.37-3.17,3.65-7.43,2-9.14-2.31s0-10.32,3.8-12.91c2.59-1.74,5.87-1.28,8.78-2.25,2.44-.82,4.08,1.9,3.77,5.1-.17,1.69-.9,3.3-.61,5,0,.26.31.48.64,1,1.58-2.89,1.91-5.9,2.33-8.89.19-1.37-1.12-1.79-1.55-2.75-.68-1.5-1.42-3.15.47-4.21s2.91.17,3.42,1.73,1.42,1.64,2.7,1.8c5,.63,6.05,2,5.36,6.91-.05.4-.21.78-.22,1.18,0,1,.16,2.29,1.28,2.36,1,.07,1.22-1.2,1.34-2.06.22-1.57.09-3.19.77-4.71.51-1.13,1.12-2.3,2.28-2.65A4.09,4.09,0,0,0,317,53.5a2.91,2.91,0,0,1,2.64-2.83c2.08-.2,1.17,1.55,1.52,2.53.88,2.48,2.82,4.34,4.08,6.6,3,5.29.36,11-5.43,11.87A8,8,0,0,1,312.57,69.38Zm7.7-9.9c-.42.82-.26,1.85-1.52,2.2a1.67,1.67,0,0,0-.87,2.48,1.71,1.71,0,0,0,2.27.9,2,2,0,0,0,1.54-2.28A5.74,5.74,0,0,0,320.27,59.48ZM288.7,64.93c.14-1.08,0-2-1-2-1.65,0-1.63,1.57-1.69,2.63s.15,2.6,1.53,2.33C289.09,67.62,288.16,65.74,288.7,64.93Z"/><path class="cls-1" d="M134,102.85c-6.25.08-11-4.31-11.34-12.16a20,20,0,0,1,5.27-14.85,12.75,12.75,0,0,1,5.17-3.47c3.6-1.31,7-.74,8.86,1.51a9.5,9.5,0,0,1,.74,10.17,6.26,6.26,0,0,1-10.38.32c-.6-.87-.76-1.52.44-2.06a6.78,6.78,0,0,0,3-2.88c.34-.59.72-1.24,0-1.9a1.69,1.69,0,0,0-2.17-.25c-2.19,1-4.36,5.78-4.07,8.88s2.19,4.36,4.82,5c3.14.74,7.07-.64,8.28-3.41,1.29-2.94,2.34-1.8,3.67-.29a7.73,7.73,0,0,1,0,10.86C143.44,101.45,139.79,102.82,134,102.85Z"/><path class="cls-1" d="M167.15,87.36a9.75,9.75,0,0,1-9.38,10A8.29,8.29,0,0,1,149.16,89c.15-6,3.45-9.65,10.17-10C163.55,78.64,167.08,82.6,167.15,87.36ZM153.9,86c1.35,2.36,2.41,3.77,4.59,2.95s2.78-2.64,2.57-4.83a1.33,1.33,0,0,0-1.35-1.31,1,1,0,0,0-1.08.82,1.06,1.06,0,0,0,.86,1.33c1.82.53.36,1.33,0,1.68C157.84,88.21,156.25,86.63,153.9,86Z"/><path class="cls-1" d="M337.56,46.35c.24-3.58.2-7.19,1-10.72A5.73,5.73,0,0,1,348,32.77c.6.54.46.93.15,1.53-3.21,6.15-3.83,12.93-4.72,19.64-.24,1.78-.32,3.58-.55,5.36-.11.9.42,2.31-1,2.45a2.79,2.79,0,0,1-3-2c-1-2.87-1-5.88-1.27-8.86C337.5,49.36,337.57,47.85,337.56,46.35Z"/><path class="cls-1" d="M341.46,62.93a3.14,3.14,0,0,1,3.12,3.49,3.53,3.53,0,1,1-7.05-.16C337.62,64,339.05,62.93,341.46,62.93Z"/></g></g></svg>